<?xml version="1.0" encoding="UTF-8"?>
<svg xmlns="http://www.w3.org/2000/svg" viewBox="0 0 1200 630" width="1200" height="630">
  <defs>
    <linearGradient id="g68329" x1="94.93970231495835%" y1="28.081442660546134%" x2="5.060297685041647%" y2="71.91855733945387%">
      <stop offset="0%" stop-color="#7C3AED"/>
      <stop offset="100%" stop-color="#6D28D9"/>
    </linearGradient>
  </defs>
  <rect width="1200" height="630" fill="url(#g68329)"/>
  <rect x="206.24251049011946" y="182.33590317890048" width="372.275696718134" height="28" rx="6" fill="rgba(255,255,255,0.1117653650091961)" stroke="rgba(255,255,255,0.1)" stroke-width="1"/><rect x="276.6996869817376" y="227.33590317890048" width="434.2272821813822" height="28" rx="6" fill="rgba(255,255,255,0.07315518358256667)" stroke="rgba(255,255,255,0.1)" stroke-width="1"/><rect x="239.64364547282457" y="272.3359031789005" width="284.3132325215265" height="28" rx="6" fill="rgba(255,255,255,0.07477568649686872)" stroke="rgba(255,255,255,0.1)" stroke-width="1"/><rect x="220.34263294190168" y="317.3359031789005" width="408.7729377904907" height="28" rx="6" fill="rgba(255,255,255,0.11856398928444832)" stroke="rgba(255,255,255,0.1)" stroke-width="1"/><rect x="392.1979845967144" y="362.3359031789005" width="383.25471037533134" height="28" rx="6" fill="rgba(255,255,255,0.06813539890106768)" stroke="rgba(255,255,255,0.1)" stroke-width="1"/><rect x="923.771858215332" y="191.08056862838566" width="20" height="20" rx="4" fill="rgba(255,255,255,0.15)" stroke="rgba(255,255,255,0.12)" stroke-width="1.5"/><path d="M 927.771858215332 201.08056862838566 L 932.771858215332 207.08056862838566 L 940.771858215332 196.08056862838566" fill="none" stroke="rgba(255,255,255,0.3)" stroke-width="2"/><line x1="953.771858215332" y1="201.08056862838566" x2="1053.771858215332" y2="201.08056862838566" stroke="rgba(255,255,255,0.08)" stroke-width="2"/><rect x="923.771858215332" y="231.08056862838566" width="20" height="20" rx="4" fill="rgba(255,255,255,0.15)" stroke="rgba(255,255,255,0.12)" stroke-width="1.5"/><path d="M 927.771858215332 241.08056862838566 L 932.771858215332 247.08056862838566 L 940.771858215332 236.08056862838566" fill="none" stroke="rgba(255,255,255,0.3)" stroke-width="2"/><line x1="953.771858215332" y1="241.08056862838566" x2="1053.771858215332" y2="241.08056862838566" stroke="rgba(255,255,255,0.08)" stroke-width="2"/><rect x="923.771858215332" y="271.08056862838566" width="20" height="20" rx="4" fill="rgba(255,255,255,0.15)" stroke="rgba(255,255,255,0.12)" stroke-width="1.5"/><path d="M 927.771858215332 281.08056862838566 L 932.771858215332 287.08056862838566 L 940.771858215332 276.08056862838566" fill="none" stroke="rgba(255,255,255,0.3)" stroke-width="2"/><line x1="953.771858215332" y1="281.08056862838566" x2="1053.771858215332" y2="281.08056862838566" stroke="rgba(255,255,255,0.08)" stroke-width="2"/><rect x="923.771858215332" y="311.08056862838566" width="20" height="20" rx="4" fill="rgba(255,255,255,0.04)" stroke="rgba(255,255,255,0.12)" stroke-width="1.5"/><line x1="953.771858215332" y1="321.08056862838566" x2="1053.771858215332" y2="321.08056862838566" stroke="rgba(255,255,255,0.08)" stroke-width="2"/><circle cx="200" cy="493.1055273488164" r="18" fill="rgba(255,255,255,0.06)" stroke="rgba(255,255,255,0.12)" stroke-width="1.5"/><line x1="222" y1="493.1055273488164" x2="398" y2="493.1055273488164" stroke="rgba(255,255,255,0.1)" stroke-width="1.5" stroke-dasharray="6 4"/><circle cx="420" cy="493.1055273488164" r="18" fill="rgba(255,255,255,0.06)" stroke="rgba(255,255,255,0.12)" stroke-width="1.5"/><line x1="442" y1="493.1055273488164" x2="618" y2="493.1055273488164" stroke="rgba(255,255,255,0.1)" stroke-width="1.5" stroke-dasharray="6 4"/><circle cx="640" cy="493.1055273488164" r="18" fill="rgba(255,255,255,0.06)" stroke="rgba(255,255,255,0.12)" stroke-width="1.5"/><line x1="662" y1="493.1055273488164" x2="838" y2="493.1055273488164" stroke="rgba(255,255,255,0.1)" stroke-width="1.5" stroke-dasharray="6 4"/><circle cx="860" cy="493.1055273488164" r="18" fill="rgba(255,255,255,0.06)" stroke="rgba(255,255,255,0.12)" stroke-width="1.5"/>
  <circle cx="855.7534952647984" cy="135.09997818851843" r="2.7815930619835854" fill="rgba(255,255,255,0.07770937579451129)"/><circle cx="1077.7712504379451" cy="361.128802949097" r="2.4434521356597543" fill="rgba(255,255,255,0.035274041555821894)"/><circle cx="527.4304976686835" cy="176.00085758138448" r="2.649165615439415" fill="rgba(255,255,255,0.07384562504710629)"/><circle cx="892.0966741628945" cy="0.5306267109699547" r="2.884656021837145" fill="rgba(255,255,255,0.07805544115370139)"/><circle cx="22.143975365906954" cy="103.2542322599329" r="1.6956517240032554" fill="rgba(255,255,255,0.06430424868129195)"/><circle cx="106.06344239786267" cy="69.35739900218323" r="1.0853175879456103" fill="rgba(255,255,255,0.035882752512115985)"/><circle cx="1147.305835224688" cy="139.76741339312866" r="1.4781808811239898" fill="rgba(255,255,255,0.0411658725538291)"/><circle cx="124.65950287878513" cy="467.2119748662226" r="2.91211408469826" fill="rgba(255,255,255,0.04265530155505985)"/><circle cx="816.5316827595234" cy="40.442227099556476" r="2.967528668232262" fill="rgba(255,255,255,0.04178151798667386)"/><circle cx="422.23587976768613" cy="402.87553881062195" r="2.1143603567034006" fill="rgba(255,255,255,0.05201983714476228)"/><circle cx="257.6194035820663" cy="107.801300464198" r="1.8792136167176068" fill="rgba(255,255,255,0.061241429306101054)"/><circle cx="1173.638051468879" cy="159.70081710023805" r="2.2652110047638416" fill="rgba(255,255,255,0.04526340768905356)"/><circle cx="501.4572744257748" cy="228.20845888461918" r="1.484438497107476" fill="rgba(255,255,255,0.07748953018570319)"/><circle cx="1126.7385190352798" cy="140.87856671540067" r="1.3470465168356895" fill="rgba(255,255,255,0.05392300695646554)"/><circle cx="948.4370349906385" cy="75.03608578350395" r="2.067920964676887" fill="rgba(255,255,255,0.05737990379100666)"/><circle cx="334.5361243933439" cy="59.388534009922296" r="1.8741685156710446" fill="rgba(255,255,255,0.04544909905642271)"/><circle cx="433.60723285004497" cy="551.8944228859618" r="1.1633705557323992" fill="rgba(255,255,255,0.05214564124587923)"/><circle cx="1076.327444985509" cy="240.86797579424456" r="1.7731627048924565" fill="rgba(255,255,255,0.04535558935720473)"/><circle cx="1077.6549029164016" cy="566.8546455865726" r="2.165641081985086" fill="rgba(255,255,255,0.05440875708125532)"/><circle cx="977.9699334874749" cy="330.3442010167055" r="2.5076666409149766" fill="rgba(255,255,255,0.071416569869034)"/>
  <text x="600" y="335" font-family="system-ui, -apple-system, 'Segoe UI', sans-serif" font-size="68" font-weight="700" fill="rgba(0,0,0,0.15)" text-anchor="middle" letter-spacing="1">Prince2 Foundation</text>
  <text x="600" y="332" font-family="system-ui, -apple-system, 'Segoe UI', sans-serif" font-size="68" font-weight="700" fill="white" text-anchor="middle" letter-spacing="1">Prince2 Foundation</text>
  <g transform="translate(1140, 575)">
    <rect x="0" y="0" width="40" height="40" rx="8" fill="rgba(255,255,255,0.15)"/>
    <text x="20" y="29" font-family="sans-serif" font-weight="bold" font-size="24" fill="rgba(255,255,255,0.6)" text-anchor="middle">K</text>
  </g>
</svg>